<svg id="visual" viewBox="0 0 960 540" width="960" height="540" xmlns="http://www.w3.org/2000/svg" xmlns:xlink="http://www.w3.org/1999/xlink" version="1.1"><g stroke-width="1" stroke-linejoin="bevel"><path d="M448.7 295L422.7 380L520.3 335Z" fill="#3d617e" stroke="#3d617e"></path><path d="M448.7 295L352 377L422.7 380Z" fill="#92cce9" stroke="#92cce9"></path><path d="M342 423L403.7 455L422.7 380Z" fill="#2d4e6a" stroke="#2d4e6a"></path><path d="M422.7 380L569.3 484L520.3 335Z" fill="#0e2943" stroke="#0e2943"></path><path d="M520.3 335L546.3 249L448.7 295Z" fill="#5d8aa8" stroke="#5d8aa8"></path><path d="M546.3 249L463.7 205L448.7 295Z" fill="#0e2943" stroke="#0e2943"></path><path d="M448.7 295L298 232L352 377Z" fill="#001930" stroke="#001930"></path><path d="M352 377L342 423L422.7 380Z" fill="#5d8aa8" stroke="#5d8aa8"></path><path d="M403.7 455L569.3 484L422.7 380Z" fill="#001930" stroke="#001930"></path><path d="M670 287L614 216L546.3 249Z" fill="#0e2943" stroke="#0e2943"></path><path d="M569.3 484L627 459L520.3 335Z" fill="#5d8aa8" stroke="#5d8aa8"></path><path d="M670 287L546.3 249L520.3 335Z" fill="#6e9fbe" stroke="#6e9fbe"></path><path d="M546.3 249L572.3 167L463.7 205Z" fill="#1e3b56" stroke="#1e3b56"></path><path d="M627 459L664 363L520.3 335Z" fill="#2d4e6a" stroke="#2d4e6a"></path><path d="M395.7 540L530.3 540L403.7 455Z" fill="#a4e3ff" stroke="#a4e3ff"></path><path d="M403.7 455L530.3 540L569.3 484Z" fill="#2d4e6a" stroke="#2d4e6a"></path><path d="M569.3 484L608 540L627 459Z" fill="#0e2943" stroke="#0e2943"></path><path d="M463.7 205L298 232L448.7 295Z" fill="#2d4e6a" stroke="#2d4e6a"></path><path d="M352 377L223.3 343L342 423Z" fill="#001930" stroke="#001930"></path><path d="M342 423L395.7 540L403.7 455Z" fill="#80b5d3" stroke="#80b5d3"></path><path d="M614 216L572.3 167L546.3 249Z" fill="#2d4e6a" stroke="#2d4e6a"></path><path d="M463.7 205L280 196L298 232Z" fill="#3d617e" stroke="#3d617e"></path><path d="M664 363L670 287L520.3 335Z" fill="#001930" stroke="#001930"></path><path d="M530.3 540L608 540L569.3 484Z" fill="#92cce9" stroke="#92cce9"></path><path d="M627 459L735.7 378L664 363Z" fill="#0e2943" stroke="#0e2943"></path><path d="M422.7 77L280 196L463.7 205Z" fill="#a4e3ff" stroke="#a4e3ff"></path><path d="M298 232L223.3 343L352 377Z" fill="#6e9fbe" stroke="#6e9fbe"></path><path d="M179.3 231L223.3 343L298 232Z" fill="#2d4e6a" stroke="#2d4e6a"></path><path d="M342 423L281 540L395.7 540Z" fill="#92cce9" stroke="#92cce9"></path><path d="M572.3 167L494.3 87L463.7 205Z" fill="#2d4e6a" stroke="#2d4e6a"></path><path d="M245.3 540L281 540L342 423Z" fill="#1e3b56" stroke="#1e3b56"></path><path d="M760.7 427L735.7 378L627 459Z" fill="#80b5d3" stroke="#80b5d3"></path><path d="M664 363L735.7 378L670 287Z" fill="#a4e3ff" stroke="#a4e3ff"></path><path d="M494.3 87L422.7 77L463.7 205Z" fill="#92cce9" stroke="#92cce9"></path><path d="M173.3 440L245.3 540L342 423Z" fill="#3d617e" stroke="#3d617e"></path><path d="M614 216L609 87L572.3 167Z" fill="#1e3b56" stroke="#1e3b56"></path><path d="M572.3 167L609 87L494.3 87Z" fill="#2d4e6a" stroke="#2d4e6a"></path><path d="M494.3 87L528.3 0L422.7 77Z" fill="#4d7593" stroke="#4d7593"></path><path d="M734.7 167L609 87L614 216Z" fill="#3d617e" stroke="#3d617e"></path><path d="M734.7 167L614 216L670 287Z" fill="#1e3b56" stroke="#1e3b56"></path><path d="M780.7 540L760.7 427L627 459Z" fill="#0e2943" stroke="#0e2943"></path><path d="M735.7 378L764.7 281L670 287Z" fill="#a4e3ff" stroke="#a4e3ff"></path><path d="M856.3 333L764.7 281L735.7 378Z" fill="#1e3b56" stroke="#1e3b56"></path><path d="M99.7 357L173.3 440L223.3 343Z" fill="#4d7593" stroke="#4d7593"></path><path d="M223.3 343L173.3 440L342 423Z" fill="#1e3b56" stroke="#1e3b56"></path><path d="M214.3 155L179.3 231L280 196Z" fill="#5d8aa8" stroke="#5d8aa8"></path><path d="M280 196L179.3 231L298 232Z" fill="#4d7593" stroke="#4d7593"></path><path d="M422.7 77L315 75L280 196Z" fill="#3d617e" stroke="#3d617e"></path><path d="M315 75L214.3 155L280 196Z" fill="#80b5d3" stroke="#80b5d3"></path><path d="M764.7 281L734.7 167L670 287Z" fill="#0e2943" stroke="#0e2943"></path><path d="M214.3 155L131.7 239L179.3 231Z" fill="#2d4e6a" stroke="#2d4e6a"></path><path d="M179.3 231L131.7 239L223.3 343Z" fill="#2d4e6a" stroke="#2d4e6a"></path><path d="M653 0L528.3 0L609 87Z" fill="#2d4e6a" stroke="#2d4e6a"></path><path d="M609 87L528.3 0L494.3 87Z" fill="#6e9fbe" stroke="#6e9fbe"></path><path d="M422.7 77L387.7 0L315 75Z" fill="#4d7593" stroke="#4d7593"></path><path d="M528.3 0L387.7 0L422.7 77Z" fill="#6e9fbe" stroke="#6e9fbe"></path><path d="M315 75L197.3 63L214.3 155Z" fill="#3d617e" stroke="#3d617e"></path><path d="M99.7 357L129.7 465L173.3 440Z" fill="#0e2943" stroke="#0e2943"></path><path d="M173.3 440L129.7 465L245.3 540Z" fill="#80b5d3" stroke="#80b5d3"></path><path d="M131.7 239L99.7 357L223.3 343Z" fill="#6e9fbe" stroke="#6e9fbe"></path><path d="M608 540L780.7 540L627 459Z" fill="#3d617e" stroke="#3d617e"></path><path d="M760.7 427L856.3 333L735.7 378Z" fill="#3d617e" stroke="#3d617e"></path><path d="M387.7 0L329 0L315 75Z" fill="#6e9fbe" stroke="#6e9fbe"></path><path d="M214.3 155L67.7 151L131.7 239Z" fill="#92cce9" stroke="#92cce9"></path><path d="M857.3 144L777.7 123L734.7 167Z" fill="#2d4e6a" stroke="#2d4e6a"></path><path d="M734.7 167L777.7 123L609 87Z" fill="#5d8aa8" stroke="#5d8aa8"></path><path d="M863.3 256L734.7 167L764.7 281Z" fill="#6e9fbe" stroke="#6e9fbe"></path><path d="M835.3 485L856.3 333L760.7 427Z" fill="#4d7593" stroke="#4d7593"></path><path d="M329 0L197.3 63L315 75Z" fill="#3d617e" stroke="#3d617e"></path><path d="M780.7 540L835.3 485L760.7 427Z" fill="#5d8aa8" stroke="#5d8aa8"></path><path d="M777.7 123L653 0L609 87Z" fill="#001930" stroke="#001930"></path><path d="M856.3 333L863.3 256L764.7 281Z" fill="#a4e3ff" stroke="#a4e3ff"></path><path d="M0 428L76.7 540L129.7 465Z" fill="#92cce9" stroke="#92cce9"></path><path d="M129.7 465L76.7 540L245.3 540Z" fill="#6e9fbe" stroke="#6e9fbe"></path><path d="M863.3 256L857.3 144L734.7 167Z" fill="#0e2943" stroke="#0e2943"></path><path d="M777.7 123L754.7 0L653 0Z" fill="#2d4e6a" stroke="#2d4e6a"></path><path d="M780.7 540L866.3 540L835.3 485Z" fill="#80b5d3" stroke="#80b5d3"></path><path d="M960 432L960 382L856.3 333Z" fill="#001930" stroke="#001930"></path><path d="M856.3 333L960 281L863.3 256Z" fill="#5d8aa8" stroke="#5d8aa8"></path><path d="M71.7 87L67.7 151L214.3 155Z" fill="#0e2943" stroke="#0e2943"></path><path d="M0 275L0 354L99.7 357Z" fill="#80b5d3" stroke="#80b5d3"></path><path d="M99.7 357L0 428L129.7 465Z" fill="#3d617e" stroke="#3d617e"></path><path d="M329 0L185.3 0L197.3 63Z" fill="#6e9fbe" stroke="#6e9fbe"></path><path d="M197.3 63L71.7 87L214.3 155Z" fill="#1e3b56" stroke="#1e3b56"></path><path d="M863.3 0L754.7 0L777.7 123Z" fill="#4d7593" stroke="#4d7593"></path><path d="M0 275L99.7 357L131.7 239Z" fill="#92cce9" stroke="#92cce9"></path><path d="M0 198L0 275L131.7 239Z" fill="#1e3b56" stroke="#1e3b56"></path><path d="M108.7 0L71.7 87L197.3 63Z" fill="#0e2943" stroke="#0e2943"></path><path d="M67.7 151L0 198L131.7 239Z" fill="#80b5d3" stroke="#80b5d3"></path><path d="M0 354L0 428L99.7 357Z" fill="#1e3b56" stroke="#1e3b56"></path><path d="M960 153L879.3 87L857.3 144Z" fill="#a4e3ff" stroke="#a4e3ff"></path><path d="M857.3 144L879.3 87L777.7 123Z" fill="#5d8aa8" stroke="#5d8aa8"></path><path d="M960 153L857.3 144L863.3 256Z" fill="#3d617e" stroke="#3d617e"></path><path d="M0 112L0 198L67.7 151Z" fill="#1e3b56" stroke="#1e3b56"></path><path d="M960 432L856.3 333L835.3 485Z" fill="#a4e3ff" stroke="#a4e3ff"></path><path d="M960 382L960 281L856.3 333Z" fill="#a4e3ff" stroke="#a4e3ff"></path><path d="M185.3 0L108.7 0L197.3 63Z" fill="#80b5d3" stroke="#80b5d3"></path><path d="M71.7 87L0 112L67.7 151Z" fill="#a4e3ff" stroke="#a4e3ff"></path><path d="M866.3 540L960 432L835.3 485Z" fill="#6e9fbe" stroke="#6e9fbe"></path><path d="M0 428L0 540L76.7 540Z" fill="#a4e3ff" stroke="#a4e3ff"></path><path d="M0 0L0 112L71.7 87Z" fill="#2d4e6a" stroke="#2d4e6a"></path><path d="M960 0L863.3 0L879.3 87Z" fill="#3d617e" stroke="#3d617e"></path><path d="M879.3 87L863.3 0L777.7 123Z" fill="#0e2943" stroke="#0e2943"></path><path d="M866.3 540L960 540L960 432Z" fill="#80b5d3" stroke="#80b5d3"></path><path d="M960 281L960 153L863.3 256Z" fill="#80b5d3" stroke="#80b5d3"></path><path d="M960 153L960 104L879.3 87Z" fill="#4d7593" stroke="#4d7593"></path><path d="M108.7 0L0 0L71.7 87Z" fill="#92cce9" stroke="#92cce9"></path><path d="M960 104L960 0L879.3 87Z" fill="#0e2943" stroke="#0e2943"></path></g></svg>